<svg width="512" height="512" viewBox="0 0 512 512" fill="none" xmlns="http://www.w3.org/2000/svg">
<path d="M300.138 317.793V211.862H211.862V317.793H114.759L256 512L397.241 317.793H300.138Z" fill="#F2C94C"/>
<path d="M229.517 176.552H282.483C292.193 176.552 300.138 168.607 300.138 158.897C300.138 149.187 292.193 141.242 282.483 141.242H229.517C219.807 141.242 211.862 149.187 211.862 158.897C211.862 168.607 219.807 176.552 229.517 176.552Z" fill="#F2C94C"/>
<path d="M229.517 105.931H282.483C292.193 105.931 300.138 97.986 300.138 88.276C300.138 78.566 292.193 70.621 282.483 70.621H229.517C219.807 70.621 211.862 78.566 211.862 88.276C211.862 97.986 219.807 105.931 229.517 105.931Z" fill="#F2C94C"/>
<path d="M229.517 35.31H282.483C292.193 35.31 300.138 27.365 300.138 17.655C300.138 7.945 292.193 0 282.483 0H229.517C219.807 0 211.862 7.945 211.862 17.655C211.862 27.365 219.807 35.31 229.517 35.31Z" fill="#F2C94C"/>
</svg>
