<svg width="32" height="32" viewBox="0 0 32 32" fill="none" xmlns="http://www.w3.org/2000/svg">
<path d="M9.82138 17.2755L9.82146 17.2756L19.7278 27.1775C19.7278 27.1775 19.7279 27.1776 19.7279 27.1776C19.9356 27.3852 20.2165 27.5 20.4995 27.5C20.7725 27.5 21.0586 27.3963 21.2743 27.1743C21.6996 26.7455 21.6985 26.0574 21.2712 25.6299C21.2711 25.6299 21.2711 25.6299 21.2711 25.6298L12.145 16.4995L21.2755 7.36906C21.704 6.94055 21.704 6.24989 21.2755 5.82138C20.847 5.39287 20.1563 5.39287 19.7278 5.82138L9.82138 15.7278C9.39287 16.1563 9.39287 16.847 9.82138 17.2755Z" fill="black" stroke="black"/>
</svg>
