<svg width="13" height="23" viewBox="0 0 13 23" fill="none" xmlns="http://www.w3.org/2000/svg">
<path d="M10.5746 11.4994L1.17341 2.01551C0.942198 1.78226 0.942198 1.40818 1.17341 1.17494C1.40462 0.941688 1.77543 0.941688 2.00664 1.17494L11.8266 11.0814C12.0578 11.3146 12.0578 11.6887 11.8266 11.9219L2.00664 21.824C1.89322 21.9384 1.74053 22 1.59221 22C1.44388 22 1.2912 21.9428 1.17777 21.824C0.946559 21.5907 0.946559 21.2166 1.17777 20.9834L10.5746 11.4994Z" fill="black" fill-opacity="0.2"/>
<path d="M12.1817 12.2739L12.1816 12.274L2.36174 22.176C2.36172 22.176 2.36169 22.176 2.36166 22.176C2.15534 22.3841 1.87525 22.5 1.59221 22.5C1.31905 22.5 1.03375 22.3952 0.819386 22.1726C0.398269 21.7443 0.39936 21.0584 0.822671 20.6314L9.87061 11.4995L0.81831 2.36751C0.393898 1.93936 0.393898 1.25109 0.81831 0.822936C1.24513 0.392355 1.93492 0.392355 2.36174 0.822936L12.1817 10.7294C12.6061 11.1575 12.6061 11.8458 12.1817 12.2739Z" stroke="black" stroke-opacity="0.2"/>
</svg>
