<svg width="48" height="48" viewBox="0 0 48 48" fill="none" xmlns="http://www.w3.org/2000/svg">
<path d="M13.5 5C14.6162 5 15.7215 5.21986 16.7528 5.64702C17.7841 6.07419 18.7211 6.70029 19.5104 7.48959C20.2997 8.27889 20.9258 9.21592 21.353 10.2472C21.7801 11.2785 22 12.3838 22 13.5V22H13.5C11.2457 22 9.08366 21.1045 7.4896 19.5104C5.89554 17.9163 5 15.7543 5 13.5C5 11.2457 5.89554 9.08365 7.4896 7.48959C9.08366 5.89553 11.2457 5 13.5 5V5ZM18 18V13.5C18 12.61 17.7361 11.74 17.2416 10.9999C16.7472 10.2599 16.0443 9.68314 15.2221 9.34254C14.3998 9.00195 13.495 8.91283 12.6221 9.08647C11.7492 9.2601 10.9474 9.68868 10.318 10.318C9.68869 10.9474 9.2601 11.7492 9.08647 12.6221C8.91284 13.495 9.00195 14.3998 9.34255 15.2221C9.68314 16.0443 10.2599 16.7471 10.9999 17.2416C11.74 17.7361 12.61 18 13.5 18H18ZM13.5 26H22V34.5C22 36.1811 21.5015 37.8245 20.5675 39.2223C19.6335 40.6202 18.306 41.7096 16.7528 42.353C15.1996 42.9963 13.4906 43.1646 11.8417 42.8367C10.1929 42.5087 8.67834 41.6992 7.4896 40.5104C6.30085 39.3217 5.4913 37.8071 5.16333 36.1583C4.83535 34.5094 5.00368 32.8004 5.64703 31.2472C6.29037 29.694 7.37984 28.3665 8.77766 27.4325C10.1755 26.4985 11.8189 26 13.5 26V26ZM13.5 30C12.61 30 11.74 30.2639 10.9999 30.7584C10.2599 31.2529 9.68314 31.9557 9.34255 32.7779C9.00195 33.6002 8.91284 34.505 9.08647 35.3779C9.2601 36.2508 9.68869 37.0526 10.318 37.682C10.9474 38.3113 11.7492 38.7399 12.6221 38.9135C13.495 39.0872 14.3998 38.9981 15.2221 38.6575C16.0443 38.3169 16.7472 37.7401 17.2416 37.0001C17.7361 36.26 18 35.39 18 34.5V30H13.5ZM34.5 5C36.7543 5 38.9164 5.89553 40.5104 7.48959C42.1045 9.08365 43 11.2457 43 13.5C43 15.7543 42.1045 17.9163 40.5104 19.5104C38.9164 21.1045 36.7543 22 34.5 22H26V13.5C26 11.2457 26.8955 9.08365 28.4896 7.48959C30.0837 5.89553 32.2457 5 34.5 5V5ZM34.5 18C35.39 18 36.26 17.7361 37.0001 17.2416C37.7401 16.7471 38.3169 16.0443 38.6575 15.2221C38.9981 14.3998 39.0872 13.495 38.9135 12.6221C38.7399 11.7492 38.3113 10.9474 37.682 10.318C37.0526 9.68868 36.2508 9.2601 35.3779 9.08647C34.505 8.91283 33.6002 9.00195 32.7779 9.34254C31.9557 9.68314 31.2529 10.2599 30.7584 10.9999C30.2639 11.74 30 12.61 30 13.5V18H34.5ZM26 26H34.5C36.1811 26 37.8245 26.4985 39.2224 27.4325C40.6202 28.3665 41.7096 29.694 42.353 31.2472C42.9963 32.8004 43.1647 34.5094 42.8367 36.1583C42.5087 37.8071 41.6992 39.3217 40.5104 40.5104C39.3217 41.6992 37.8071 42.5087 36.1583 42.8367C34.5094 43.1646 32.8004 42.9963 31.2472 42.353C29.694 41.7096 28.3665 40.6202 27.4325 39.2223C26.4985 37.8245 26 36.1811 26 34.5V26ZM30 30V34.5C30 35.39 30.2639 36.26 30.7584 37.0001C31.2529 37.7401 31.9557 38.3169 32.7779 38.6575C33.6002 38.9981 34.505 39.0872 35.3779 38.9135C36.2508 38.7399 37.0526 38.3113 37.682 37.682C38.3113 37.0526 38.7399 36.2508 38.9135 35.3779C39.0872 34.505 38.9981 33.6002 38.6575 32.7779C38.3169 31.9557 37.7401 31.2529 37.0001 30.7584C36.26 30.2639 35.39 30 34.5 30H30Z" fill="white"/>
</svg>
