<svg width="64" height="64" viewBox="0 0 64 64" fill="none" xmlns="http://www.w3.org/2000/svg">
<g opacity="0.9">
<path d="M62.6797 18.3011V49.3981C62.6797 53.03 59.7357 55.9741 56.1026 55.9741H7.89737C4.26425 55.9741 1.32025 53.03 1.32025 49.3981V12.3154C1.32025 9.947 3.23975 8.02612 5.60825 8.02612H19.7606C20.8827 8.02612 21.96 8.46712 22.7614 9.25125L25.984 12.4079L32 18.3011H62.6797Z" fill="#47D4C4"/>
<path d="M60.3035 12.4077V18.3011H32L25.9839 12.4077H60.3035Z" fill="#7D54F2"/>
<path d="M35.2994 42.175C35.3586 45.1374 32.9057 47.5433 29.9429 47.5433H14.1294C12.1288 47.5433 10.4545 45.956 10.426 43.9558C10.4252 43.9026 10.4255 43.8495 10.4265 43.7959C10.4755 41.4463 12.3832 39.5149 14.7322 39.4376C15.6184 39.4085 16.4479 39.6388 17.1531 40.0569C17.1327 39.852 17.1227 39.6451 17.1227 39.4351C17.1227 35.8873 19.9991 33.0109 23.547 33.0109C26.2501 33.0109 28.5636 34.6813 29.5119 37.0466C29.6854 37.0294 29.8607 37.0203 30.0382 37.0203C32.9085 37.0201 35.2424 39.3186 35.2994 42.175Z" fill="#FFD771"/>
<path d="M62.6797 16.9809H61.6236V12.4077C61.6236 11.6787 61.0326 11.0876 60.3035 11.0876H26.5226L23.6847 8.30775C22.6292 7.27475 21.2356 6.70587 19.7605 6.70587H5.60813C2.51588 6.70587 0 9.22225 0 12.3154V49.3981C0 53.752 3.54275 57.2942 7.89738 57.2942H56.1026C60.4573 57.2942 64 53.752 64 49.3981V18.3011C64 17.5721 63.409 16.9809 62.6797 16.9809ZM29.2183 13.728H58.9832V16.981H32.5389L29.2183 13.728ZM61.3596 49.3981C61.3596 52.2961 59.0014 54.6539 56.1026 54.6539H7.89738C4.99863 54.6539 2.64037 52.2961 2.64037 49.3981V12.3154C2.64037 10.6782 3.97163 9.34625 5.60813 9.34625H19.7605C20.541 9.34625 21.2788 9.6475 21.8374 10.1944L31.076 19.2442C31.3228 19.486 31.6544 19.6212 31.9999 19.6212H61.3595V49.3981H61.3596Z" fill="#151328"/>
<path d="M57.3991 33.0871C56.67 33.0871 56.079 33.6782 56.079 34.4072V49.3972C56.079 50.1262 56.67 50.7174 57.3991 50.7174C58.1282 50.7174 58.7192 50.1262 58.7192 49.3972V34.4072C58.7192 33.6784 58.1282 33.0871 57.3991 33.0871Z" fill="#151328"/>
<path d="M57.3991 27.7184C56.67 27.7184 56.079 28.3095 56.079 29.0385V29.3025C56.079 30.0315 56.67 30.6226 57.3991 30.6226C58.1282 30.6226 58.7192 30.0315 58.7192 29.3025V29.0385C58.7192 28.3095 58.1282 27.7184 57.3991 27.7184Z" fill="#231F20"/>
<path d="M30.3372 35.7067C28.9884 33.2397 26.4141 31.6908 23.5471 31.6908C19.6954 31.6908 16.4914 34.5174 15.9003 38.2052C15.5033 38.1344 15.0975 38.1045 14.689 38.1184C11.6226 38.2192 9.17063 40.701 9.10676 43.7675C9.10526 43.8364 9.10501 43.9052 9.10601 43.9747C9.14451 46.6705 11.398 48.8635 14.1295 48.8635H29.943C31.738 48.8635 33.488 48.1286 34.7439 46.8475C35.9885 45.5776 36.6547 43.9089 36.6196 42.1487C36.585 40.4187 35.8851 38.7977 34.6487 37.5845C33.4817 36.4391 31.9604 35.7789 30.3372 35.7067ZM32.8581 44.9991C32.0845 45.7885 31.0491 46.2231 29.9429 46.2231H14.1294C12.8333 46.2231 11.764 45.1975 11.746 43.9381C11.7455 43.9004 11.7456 43.8626 11.7464 43.8234C11.7804 42.1865 13.1393 40.811 14.7755 40.757C14.8105 40.756 14.8455 40.7552 14.8804 40.7552C15.445 40.7552 15.9959 40.9056 16.4796 41.1925C16.9079 41.4466 17.4426 41.4377 17.8623 41.1705C18.2821 40.903 18.5159 40.4221 18.4668 39.9267C18.4508 39.7661 18.4428 39.6007 18.4428 39.4351C18.4428 36.6207 20.7325 34.331 23.5469 34.331C25.645 34.331 27.5054 35.5898 28.2865 37.5379C28.5052 38.0834 29.059 38.4195 29.6427 38.3602C29.7754 38.3469 29.9085 38.3404 30.0382 38.3404C32.1687 38.3404 33.9367 40.0724 33.9792 42.2014C34.0004 43.2464 33.6021 44.24 32.8581 44.9991Z" fill="#231F20"/>
</g>
</svg>
