<svg width="64" height="64" viewBox="0 0 64 64" fill="none" xmlns="http://www.w3.org/2000/svg">
<path d="M56.8034 18.2271H33.0981V12.2805C33.0981 10.3345 34.6758 8.75682 36.6219 8.75682H53.2796C55.2256 8.75682 56.8033 10.3345 56.8033 12.2805L56.8034 18.2271Z" fill="#165C92"/>
<path d="M64 18.4163C64 16.557 62.4927 15.0496 60.6333 15.0496H29.1422V8.94592C29.1422 7.08651 27.635 5.57925 25.7756 5.57925H8.80365C6.94424 5.57925 5.43698 7.08651 5.43698 8.94592V50.5506C5.43698 52.41 6.94424 53.9173 8.80365 53.9173H60.6332C62.4926 53.9173 63.9998 52.41 63.9998 50.5506L64 18.4163Z" fill="#AA6100"/>
<path d="M51.3663 22.7306H27.661V16.784C27.661 14.8379 29.2387 13.2603 31.1848 13.2603H47.8424C49.7885 13.2603 51.3662 14.8379 51.3662 16.784V22.7306H51.3663Z" fill="#1A6FB0"/>
<g opacity="0.1">
<path opacity="0.1" d="M60.0265 22.4142C60.0265 20.0257 58.0903 18.0894 55.7018 18.0894H25.1688V12.9439C25.1688 10.5553 23.2325 8.61909 20.844 8.61909H4.83032C2.97091 8.61909 1.46365 10.1265 1.46365 11.9858V53.5905C1.46365 55.4499 2.97091 56.9571 4.83032 56.9571H56.6599C58.5193 56.9571 60.0265 55.4499 60.0265 53.5905V22.4142Z" fill="black"/>
</g>
<path d="M58.5629 22.9197C58.5629 21.0605 57.0556 19.5531 55.1962 19.5531H23.7053V13.4494C23.7053 11.59 22.198 10.0827 20.3386 10.0827H3.36666C1.50726 10.0827 0 11.5901 0 13.4494V55.0541C0 56.9135 1.50726 58.4208 3.36666 58.4208H55.1962C57.0556 58.4208 58.5629 56.9135 58.5629 55.0541V22.9197Z" fill="#FFA733"/>
<path d="M22.6378 40.806H5.43713V49.3998H22.6378V40.806Z" fill="white"/>
</svg>
