<svg width="45" height="44" viewBox="0 0 45 44" fill="none" xmlns="http://www.w3.org/2000/svg">
<g clip-path="url(#clip0_8_26)">
<path d="M2.04545 38.1818H37.5C38.6277 38.1818 39.5455 37.2641 39.5455 36.1364V2.04545C39.5455 0.917727 38.6277 0 37.5 0H2.04545C0.917727 0 0 0.917727 0 2.04545V36.1364C0 37.2641 0.917727 38.1818 2.04545 38.1818ZM1.36364 2.04545C1.36364 1.66909 1.67045 1.36364 2.04545 1.36364H37.5C37.875 1.36364 38.1818 1.66909 38.1818 2.04545V36.1364C38.1818 36.5127 37.875 36.8182 37.5 36.8182H2.04545C1.67045 36.8182 1.36364 36.5127 1.36364 36.1364V2.04545Z" fill="white"/>
<path d="M24.5454 15C26.0495 15 27.2727 13.7768 27.2727 12.2727C27.2727 10.7686 26.0495 9.54546 24.5454 9.54546C23.0414 9.54546 21.8182 10.7686 21.8182 12.2727C21.8182 13.7768 23.0414 15 24.5454 15ZM24.5454 10.9091C25.2982 10.9091 25.9091 11.5214 25.9091 12.2727C25.9091 13.0241 25.2982 13.6364 24.5454 13.6364C23.7927 13.6364 23.1818 13.0241 23.1818 12.2727C23.1818 11.5214 23.7927 10.9091 24.5454 10.9091Z" fill="white"/>
<path d="M4.77273 31.3636H34.7727C35.1491 31.3636 35.4545 31.0582 35.4545 30.6818V4.77273C35.4545 4.39637 35.1491 4.09091 34.7727 4.09091H4.77273C4.39637 4.09091 4.09091 4.39637 4.09091 4.77273V30.6818C4.09091 31.0582 4.39637 31.3636 4.77273 31.3636ZM5.45455 30V23.6755C5.48455 23.6536 5.51864 23.6414 5.54591 23.6141L12.5223 16.6377C12.8768 16.2832 13.4932 16.2845 13.8477 16.6377L24.1036 26.8936C24.2373 27.0273 24.4118 27.0927 24.5864 27.0927C24.7555 27.0927 24.9245 27.03 25.0568 26.9045L30.3286 21.8973C30.5059 21.72 30.7418 21.6218 30.9914 21.6218C31.2423 21.6218 31.4755 21.72 31.6241 21.8645L34.0909 24.6723V30H5.45455ZM34.0909 5.45455V22.6105L32.6168 20.9359C32.1845 20.5009 31.6064 20.2609 30.9927 20.2609C30.9914 20.2609 30.9914 20.2609 30.9914 20.2609C30.3764 20.2609 29.7982 20.5009 29.3755 20.9236L24.5973 25.4618L14.8118 15.675C13.9405 14.805 12.4268 14.8064 11.5582 15.675L5.45455 21.7786V5.45455H34.0909Z" fill="white"/>
<path d="M6.13638 39.6586C5.76001 39.6586 5.45456 39.9641 5.45456 40.3405V41.5909C5.45456 42.7186 6.37229 43.6364 7.50001 43.6364H42.9546C44.0823 43.6364 45 42.7186 45 41.5909V6.13637C45 5.00864 44.0823 4.09091 42.9546 4.09091H41.7041C41.3277 4.09091 41.0223 4.39637 41.0223 4.77273C41.0223 5.14909 41.3277 5.45455 41.7041 5.45455H42.9546C43.3296 5.45455 43.6364 5.76 43.6364 6.13637V41.5909C43.6364 41.9673 43.3296 42.2727 42.9546 42.2727H7.50001C7.12501 42.2727 6.8182 41.9673 6.8182 41.5909V40.3405C6.8182 39.9641 6.51274 39.6586 6.13638 39.6586Z" fill="white"/>
</g>
<defs>
<clipPath id="clip0_8_26">
<rect width="45" height="43.6364" fill="white"/>
</clipPath>
</defs>
</svg>
