<svg width="48" height="48" viewBox="0 0 48 48" fill="none" xmlns="http://www.w3.org/2000/svg">
<path d="M31.0286 0H6V48H41.2751V10.9714L31.0286 0ZM24.5535 41.9461H12.3673C11.8384 41.9461 11.378 41.5249 11.378 40.9567C11.378 40.4278 11.7992 39.9673 12.3673 39.9673H24.5535C25.0824 39.9673 25.5428 40.3886 25.5428 40.9567C25.5428 41.4857 25.1314 41.9461 24.5535 41.9461ZM34.9175 35.6963H12.3673C11.8384 35.6963 11.378 35.2751 11.378 34.7069C11.378 34.178 11.7992 33.7176 12.3673 33.7176H34.9175C35.4465 33.7176 35.9069 34.1388 35.9069 34.7069C35.9069 35.2751 35.4563 35.6963 34.9175 35.6963ZM34.9175 29.4857H12.3673C11.8384 29.4857 11.378 29.0645 11.378 28.4963C11.378 27.9673 11.7992 27.5069 12.3673 27.5069H34.9175C35.4465 27.5069 35.9069 27.9282 35.9069 28.4963C35.9069 29.0645 35.4563 29.4857 34.9175 29.4857ZM34.9175 23.2751H12.3673C11.8384 23.2751 11.378 22.8539 11.378 22.2857C11.378 21.7176 11.7992 21.2963 12.3673 21.2963H34.9175C35.4465 21.2963 35.9069 21.7176 35.9069 22.2857C35.9069 22.8539 35.4563 23.2751 34.9175 23.2751ZM34.9175 17.0253H12.3673C11.8384 17.0253 11.378 16.6041 11.378 16.0359C11.378 15.5069 11.7992 15.0465 12.3673 15.0465H34.9175C35.4465 15.0465 35.9069 15.4678 35.9069 16.0359C35.9069 16.6139 35.4563 17.0253 34.9175 17.0253ZM29.0498 12.911V1.93959L39.2963 12.911H29.0498Z" fill="white"/>
</svg>
