<svg width="48" height="48" viewBox="0 0 48 48" fill="none" xmlns="http://www.w3.org/2000/svg">
<path d="M41.2179 8.55094L32.947 0.280031C32.7677 0.100781 32.5245 0 32.2709 0H7.45817C6.93017 0 6.50201 0.428063 6.50201 0.956156V47.0438C6.50201 47.5719 6.93017 48 7.45817 48H40.5418C41.0698 48 41.4979 47.5719 41.4979 47.0438V9.22706C41.4979 8.97347 41.3972 8.73028 41.2179 8.55094ZM33.227 3.26466L38.2334 8.27091H33.227V3.26466ZM39.5856 46.0877H8.41433V1.91231H31.3147V9.22706C31.3147 9.75516 31.7429 10.1832 32.2709 10.1832H39.5856V46.0877Z" fill="white"/>
<path d="M26.4386 42.6454H11.1873C10.6593 42.6454 10.2311 43.0734 10.2311 43.6015C10.2311 44.1296 10.6593 44.5577 11.1873 44.5577H26.4386C26.9666 44.5577 27.3948 44.1296 27.3948 43.6015C27.3948 43.0734 26.9666 42.6454 26.4386 42.6454Z" fill="white"/>
<path d="M31.3149 42.6454H30.2774C29.7494 42.6454 29.3212 43.0734 29.3212 43.6015C29.3212 44.1296 29.7494 44.5577 30.2774 44.5577H31.3149C31.8429 44.5577 32.2711 44.1296 32.2711 43.6015C32.2711 43.0734 31.8429 42.6454 31.3149 42.6454Z" fill="white"/>
<path d="M37.5844 28.8698L32.3254 23.6108C31.9519 23.2374 31.3467 23.2374 30.9731 23.6108L27.1553 27.4286L20.2298 20.5031C19.8563 20.1298 19.2511 20.1298 18.8775 20.5031L10.4153 28.9653C10.2362 29.1445 10.1354 29.3878 10.1354 29.6414V33.1793C10.1354 33.7073 10.5635 34.1354 11.0915 34.1354H36.9082C37.4362 34.1354 37.8644 33.7073 37.8644 33.1793V29.5458C37.8645 29.2923 37.7637 29.049 37.5844 28.8698ZM35.9522 32.2231H12.0478V30.0375L19.5538 22.5315L26.4793 29.457C26.8528 29.8303 27.458 29.8303 27.8316 29.457L31.6494 25.6391L35.9522 29.9419V32.2231Z" fill="white"/>
<path d="M27.251 15.9682C25.4057 15.9682 23.9044 17.4695 23.9044 19.3147C23.9044 21.16 25.4057 22.6613 27.251 22.6613C29.0962 22.6613 30.5975 21.16 30.5975 19.3147C30.5976 17.4694 29.0963 15.9682 27.251 15.9682ZM27.251 20.749C26.4601 20.749 25.8167 20.1056 25.8167 19.3147C25.8167 18.5239 26.4601 17.8805 27.251 17.8805C28.0418 17.8805 28.6852 18.5239 28.6852 19.3147C28.6852 20.1056 28.0418 20.749 27.251 20.749Z" fill="white"/>
</svg>
