<svg width="48" height="48" viewBox="0 0 48 48" fill="none" xmlns="http://www.w3.org/2000/svg">
<path d="M44 11.2H36C34.6768 11.2 33.6 10.1232 33.6 8.80003V4.8C33.6 4.35844 33.2424 4.00003 32.8 4.00003C32.3576 4.00003 32 4.35844 32 4.8V8.80003C32 11.0056 33.7944 12.8001 36.0001 12.8001H43.2001V44.0001C43.2001 45.3233 42.1233 46.4001 40.8001 46.4001H7.19998C5.8768 46.4001 4.79998 45.3233 4.79998 44.0001V4.00003C4.79998 2.67684 5.8768 1.60003 7.19998 1.60003H32.4688L40.2344 9.36563C40.5472 9.67847 41.0528 9.67847 41.3656 9.36563C41.6783 9.05288 41.6783 8.54719 41.3656 8.23444L33.3656 0.234375C33.216 0.084 33.0128 0 32.8 0H7.19998C4.99442 0 3.19995 1.79437 3.19995 4.00003V44.0001C3.19995 46.2056 4.99442 48 7.19998 48H40.8C43.0055 48 44.8 46.2056 44.8 44V12C44.8 11.5584 44.4424 11.2 44 11.2Z" fill="white"/>
<path d="M28 40H32.8C33.2424 40 33.6 39.6416 33.6 39.2001V20.0001C33.6 19.5585 33.2424 19.2001 32.8 19.2001H15.1999C14.7575 19.2001 14.4 19.5585 14.4 20.0001V39.2001C14.4 39.6416 14.7575 40 15.1999 40H24.7999C25.2423 40 25.5999 39.6416 25.5999 39.2001C25.5999 38.7585 25.2423 38.4001 24.7999 38.4001H20.7999V30.4001H27.1999V39.2002C27.1999 39.6416 27.5576 40 28 40ZM28.8 20.8H31.9999V24H28.8V20.8ZM28.8 25.6H31.9999V28.8H28.8V25.6ZM28.8 30.4H31.9999V33.6H28.8V30.4ZM28.8 35.2H31.9999V38.4H28.8V35.2ZM19.2 38.4H16V35.2H19.2V38.4ZM19.2 33.6H16V30.4H19.2V33.6ZM19.2 28.8H16V25.6H19.2V28.8ZM19.2 24H16V20.8H19.2V24ZM20.8 28.8V20.8H27.2V28.8H20.8Z" fill="white"/>
</svg>
