<svg width="200" height="200" viewBox="0 0 200 200" fill="none" xmlns="http://www.w3.org/2000/svg">
<g opacity="0.9">
<path d="M195.874 57.191V154.369C195.874 165.719 186.674 174.919 175.321 174.919H24.6793C13.3258 174.919 4.12578 165.719 4.12578 154.369V38.4855C4.12578 31.0844 10.1242 25.0816 17.5258 25.0816H61.7519C65.2586 25.0816 68.625 26.4598 71.1293 28.9102L81.2 38.7746L100 57.191H195.874Z" fill="#7D54F2"/>
<path d="M188.448 38.7742V57.191H100L81.1996 38.7742H188.448Z" fill="#47D4C4"/>
<path d="M110.311 131.797C110.496 141.054 102.83 148.573 93.5715 148.573H44.1543C37.9027 148.573 32.6703 143.613 32.5812 137.362C32.5789 137.196 32.5797 137.03 32.5828 136.862C32.7359 129.52 38.6977 123.484 46.0383 123.243C48.8074 123.152 51.3996 123.871 53.6035 125.178C53.5398 124.538 53.5086 123.891 53.5086 123.235C53.5086 112.148 62.4973 103.159 73.5844 103.159C82.0317 103.159 89.2613 108.379 92.2246 115.771C92.7668 115.717 93.3149 115.688 93.8696 115.688C102.839 115.688 110.132 122.871 110.311 131.797Z" fill="#FD81FF"/>
<path d="M195.874 53.0652H192.574V38.7742C192.574 36.4961 190.727 34.6488 188.448 34.6488H82.8832L74.0148 25.9617C70.7164 22.7336 66.3613 20.9559 61.7516 20.9559H17.5254C7.86211 20.9559 0 28.8195 0 38.4856V154.369C0 167.975 11.0711 179.045 24.6793 179.045H175.321C188.929 179.045 200 167.975 200 154.369V57.191C200 54.9129 198.153 53.0652 195.874 53.0652ZM91.307 42.9H184.323V53.0656H101.684L91.307 42.9ZM191.749 154.369C191.749 163.425 184.379 170.793 175.321 170.793H24.6793C15.6207 170.793 8.25117 163.425 8.25117 154.369V38.4856C8.25117 33.3695 12.4113 29.207 17.5254 29.207H61.7516C64.1906 29.207 66.4961 30.1484 68.2418 31.8574L97.1125 60.1383C97.8836 60.8938 98.9199 61.3164 99.9996 61.3164H191.748V154.369H191.749Z" fill="#151328"/>
<path d="M179.372 103.397C177.094 103.397 175.247 105.245 175.247 107.523V154.366C175.247 156.645 177.094 158.492 179.372 158.492C181.651 158.492 183.498 156.645 183.498 154.366V107.523C183.498 105.245 181.651 103.397 179.372 103.397Z" fill="#151328"/>
<path d="M179.372 86.6199C177.094 86.6199 175.247 88.4672 175.247 90.7453V91.5703C175.247 93.8484 177.094 95.6957 179.372 95.6957C181.651 95.6957 183.498 93.8484 183.498 91.5703V90.7453C183.498 88.4672 181.651 86.6199 179.372 86.6199Z" fill="#231F20"/>
<path d="M94.8039 111.584C90.5886 103.874 82.5441 99.0336 73.5847 99.0336C61.548 99.0336 51.5355 107.867 49.6883 119.391C48.4476 119.17 47.1797 119.077 45.9031 119.12C36.3207 119.435 28.6582 127.191 28.4586 136.773C28.4539 136.989 28.4531 137.204 28.4563 137.421C28.5766 145.845 35.6188 152.698 44.1547 152.698H93.5718C99.1812 152.698 104.65 150.402 108.575 146.398C112.464 142.43 114.546 137.215 114.436 131.715C114.328 126.309 112.141 121.243 108.277 117.452C104.63 113.872 99.8761 111.809 94.8039 111.584ZM102.682 140.622C100.264 143.089 97.0285 144.447 93.5714 144.447H44.1543C40.1039 144.447 36.7625 141.242 36.7062 137.307C36.7047 137.189 36.7051 137.071 36.7074 136.948C36.8137 131.833 41.0602 127.534 46.1734 127.366C46.2828 127.363 46.3922 127.36 46.5012 127.36C48.2656 127.36 49.9871 127.83 51.4988 128.727C52.8371 129.521 54.5082 129.493 55.8195 128.658C57.1316 127.822 57.8621 126.319 57.7086 124.771C57.6586 124.269 57.6336 123.752 57.6336 123.235C57.6336 114.44 64.789 107.284 73.584 107.284C80.1406 107.284 85.9543 111.218 88.3953 117.306C89.0789 119.011 90.8093 120.061 92.6336 119.876C93.048 119.834 93.464 119.814 93.8695 119.814C100.527 119.814 106.052 125.226 106.185 131.879C106.251 135.145 105.007 138.25 102.682 140.622Z" fill="#231F20"/>
</g>
</svg>
